<?xml version="1.0" standalone="no"?><!DOCTYPE svg PUBLIC "-//W3C//DTD SVG 1.1//EN" "http://www.w3.org/Graphics/SVG/1.1/DTD/svg11.dtd"><svg t="1546570151916" class="icon" style="" viewBox="0 0 1024 1024" version="1.1" xmlns="http://www.w3.org/2000/svg" p-id="1468" xmlns:xlink="http://www.w3.org/1999/xlink" width="200" height="200"><defs><style type="text/css"></style></defs><path d="M492.8 32c64-6.4 128 32 128 96 6.4 121.6-172.8 128-211.2 44.8-38.4-70.4 19.2-128 83.2-140.8zM710.4 576H608c-12.8 96-19.2 198.4-32 300.8H441.6C435.2 774.4 422.4 678.4 416 576c-32-6.4-76.8 6.4-108.8 0V448c0-38.4-12.8-96 6.4-128 12.8-32 83.2-38.4 128-44.8h153.6c38.4 6.4 102.4 12.8 115.2 44.8 12.8 25.6 0 89.6 0 128v128z" fill="" p-id="1469"></path><path d="M1024 832v12.8c-32 70.4-121.6 96-211.2 115.2-185.6 38.4-409.6 38.4-595.2 0C128 940.8 38.4 915.2 6.4 844.8v-19.2c6.4-19.2 25.6-38.4 38.4-51.2 76.8-51.2 192-70.4 307.2-83.2 0 19.2 6.4 38.4 6.4 57.6-51.2 6.4-83.2 12.8-128 25.6-32 6.4-89.6 25.6-89.6 64 0 19.2 38.4 44.8 64 51.2 32 12.8 64 19.2 96 25.6 166.4 32 384 32 524.8-25.6 25.6-12.8 64-25.6 64-51.2 0-32-57.6-51.2-89.6-64-44.8-12.8-83.2-19.2-128-25.6 0-19.2 0-38.4 6.4-57.6 128 25.6 300.8 38.4 345.6 140.8z" fill="" p-id="1470"></path></svg>