<?xml version="1.0" standalone="no"?><!DOCTYPE svg PUBLIC "-//W3C//DTD SVG 1.1//EN" "http://www.w3.org/Graphics/SVG/1.1/DTD/svg11.dtd"><svg t="1546570799966" class="icon" style="" viewBox="0 0 1024 1024" version="1.1" xmlns="http://www.w3.org/2000/svg" p-id="20465" xmlns:xlink="http://www.w3.org/1999/xlink" width="200" height="200"><defs><style type="text/css"></style></defs><path d="M512 512m-512 0a512 512 0 1 0 1024 0 512 512 0 1 0-1024 0Z" fill="#31C27C" p-id="20466"></path><path d="M500.622222 341.333333h45.511111v170.666667h-45.511111z" fill="#FFFFFF" p-id="20467"></path><path d="M534.755556 398.222222h170.666666v45.511111H534.755556z" fill="#FFFFFF" p-id="20468"></path><path d="M284.444444 250.311111h45.511112v534.755556h-45.511112z" fill="#FFFFFF" p-id="20469"></path><path d="M386.844444 546.133333h45.511112v227.555556h-45.511112z" fill="#FFFFFF" p-id="20470"></path><path d="M386.844444 728.177778h284.444445v45.511111H386.844444z" fill="#FFFFFF" p-id="20471"></path><path d="M386.844444 546.133333h284.444445v45.511111H386.844444z" fill="#FFFFFF" p-id="20472"></path><path d="M284.444444 250.311111h466.488889v45.511111H284.444444z" fill="#FFFFFF" p-id="20473"></path><path d="M500.622222 136.533333h45.511111v79.644445h-45.511111z" fill="#FFFFFF" p-id="20474"></path><path d="M716.731733 773.688889V546.235733H671.288889V773.688889h45.454222z" fill="#FFFFFF" p-id="20475"></path><path d="M389.12 900.448711a21.617778 21.617778 0 0 0 24.416711-20.332089 20.48 20.48 0 0 0-15.086933-19.444622l-10.467556-4.460089a14.9504 14.9504 0 0 1-12.117333-12.5952 12.049067 12.049067 0 0 1 14.097067-11.104711 23.369956 23.369956 0 0 1 16.782222 6.940444l4.369066-5.256533a28.956444 28.956444 0 0 0-21.139911-8.920178 19.091911 19.091911 0 0 0-7.645866 37.387378l10.524444 4.664889a14.870756 14.870756 0 0 1 12.413156 13.391644 13.653333 13.653333 0 0 1-15.928889 12.515556 28.114489 28.114489 0 0 1-20.354845-9.227378l-4.960711 5.688889a33.951289 33.951289 0 0 0 25.099378 10.752z m55.079822-1.285689h8.339911v-65.672533h22.254934v-6.940445H422.115556v6.940445h22.141155v65.661155z m71.213511 1.285689c18.067911 0 30.72-14.677333 30.72-37.888s-12.708978-37.296356-30.72-37.296355-30.72 14.188089-30.72 37.296355 12.720356 37.888 30.72 37.888z m0-7.236267c-13.403022 0-22.232178-12.003556-22.232177-30.651733s8.840533-30.048711 22.232177-30.048711 22.300444 11.491556 22.300445 30.037333-8.829156 30.606222-22.300445 30.606223z m55.978667-60.0064h12.708978c11.719111 0 18.204444 3.572622 18.204444 13.494045 0 9.716622-6.4512 14.381511-18.204444 14.381511h-12.743111V833.194667z m40.96 65.991112L593.590044 866.986667a19.5584 19.5584 0 0 0 16.873245-20.332089c0-14.882133-10.319644-20.138667-25.122133-20.138667h-22.232178v72.6016h8.237511v-31.300267h13.653333l18.204445 31.345778h9.147733z m13.983289 0h42.496v-6.940445h-34.247111v-27.875555h27.898311v-6.940445h-27.909689v-23.893333h33.154844v-6.940445h-41.392355v72.6016z" fill="#FFFFFF" p-id="20476"></path></svg>