<?xml version="1.0" standalone="no"?><!DOCTYPE svg PUBLIC "-//W3C//DTD SVG 1.1//EN" "http://www.w3.org/Graphics/SVG/1.1/DTD/svg11.dtd"><svg t="1546570849236" class="icon" style="" viewBox="0 0 1086 1024" version="1.1" xmlns="http://www.w3.org/2000/svg" p-id="21424" xmlns:xlink="http://www.w3.org/1999/xlink" width="212.109375" height="200"><defs><style type="text/css"></style></defs><path d="M129.854246 407.819924v456.429686s3.879652 116.161355 91.285937 136.928906h639.00156s88.319144-28.070426 91.285937-91.285937v-502.072655l-365.143749-365.143748s-35.82973-37.655449-91.285937 0l-365.143748 365.143748z" fill="#E60012" p-id="21425"></path><path d="M39.024738 528.317361a22.821484 22.821484 0 0 1-32.406508 0 22.821484 22.821484 0 0 1 0-32.178293L476.056162 26.701137a91.285937 91.285937 0 0 1 128.941386 0l474.002229 474.002228a22.821484 22.821484 0 1 1-32.178293 32.178293L572.819256 58.879429A45.642969 45.642969 0 0 0 540.640963 45.642969a45.642969 45.642969 0 0 0-32.406508 13.464675L39.024738 528.317361" fill="#E60012" p-id="21426"></path><path d="M928.606196 430.641409a22.821484 22.821484 0 0 1 45.642968 0v456.429685a136.928906 136.928906 0 0 1-136.928905 136.928906h-593.358592a136.928906 136.928906 0 0 1-136.928906-136.928906v-456.429685a22.821484 22.821484 0 0 1 45.642969 0v456.429685a91.285937 91.285937 0 0 0 91.285937 91.285937h593.358592a91.285937 91.285937 0 0 0 91.285937-91.285937v-456.429685" fill="#E60012" p-id="21427"></path><path d="M335.247604 521.927346a45.642969 45.642969 0 1 1-45.642968 45.642968 45.642969 45.642969 0 0 1 45.642968-45.642968zM746.034321 521.927346a45.642969 45.642969 0 1 1-45.642968 45.642968 45.642969 45.642969 0 0 1 45.642968-45.642968z" fill="#FFFFFF" p-id="21428"></path><path d="M700.391353 590.391799h45.642968a205.393359 205.393359 0 1 1-410.786717 0h45.642969a159.75039 159.75039 0 0 0 319.50078 0" fill="#FFFFFF" p-id="21429"></path></svg>