<?xml version="1.0" standalone="no"?><!DOCTYPE svg PUBLIC "-//W3C//DTD SVG 1.1//EN" "http://www.w3.org/Graphics/SVG/1.1/DTD/svg11.dtd"><svg t="1546570820065" class="icon" style="" viewBox="0 0 1024 1024" version="1.1" xmlns="http://www.w3.org/2000/svg" p-id="20585" xmlns:xlink="http://www.w3.org/1999/xlink" width="200" height="200"><defs><style type="text/css"></style></defs><path d="M646.7 941.35H518.838c-32.078 0-58.175-26.098-58.175-58.176V701.295c0-32.077 26.097-58.175 58.175-58.175h127.86c32.08 0 58.177 26.098 58.177 58.175v181.879c0 32.078-26.098 58.176-58.175 58.176zM518.838 684.054c-9.508 0-17.243 7.735-17.243 17.242v181.879c0 9.507 7.735 17.243 17.243 17.243h127.86c9.508 0 17.245-7.736 17.245-17.243v-181.88c0-9.507-7.737-17.242-17.244-17.242H518.838zM897.22 150.036l-0.296-1.427-0.495-1.37c-0.603-1.669-6.267-16.736-19.293-31.912-18.346-21.378-42.263-32.679-69.165-32.679H212.765c-26.75 0-50.274 11.243-68.032 32.514-12.598 15.09-17.869 30.082-18.428 31.742l-0.382 1.133-42.445 200.665v2.14c0 53.305 43.366 96.671 96.671 96.671 25.611 0 49.746-9.916 67.957-27.923a97.945 97.945 0 0 0 9-10.245c19.253 25.467 49.789 41.956 84.112 41.956 34.799 0 65.706-16.96 84.904-43.045 19.2 26.084 50.112 43.045 84.922 43.045 34.798 0 65.706-16.96 84.904-43.045 19.2 26.084 50.112 43.045 84.922 43.045 34.279 0 64.784-16.457 84.038-41.881a97.95 97.95 0 0 0 8.94 10.17c18.211 18.006 42.345 27.923 67.956 27.923 53.304 0 96.671-43.366 96.671-96.67v-2.102l-41.254-198.705z m-55.417 256.545c-30.317 0-55.289-24.632-55.72-54.93a106 106 0 0 0 0.156-5.72v-73.057h-40.932v73.057c0 35.53-28.908 64.437-64.456 64.437-35.532 0-64.439-28.907-64.439-64.437v-73.057H575.48v73.057c0 35.53-28.907 64.437-64.455 64.437-35.531 0-64.439-28.907-64.439-64.437v-73.057h-40.932v73.057c0 35.53-28.906 64.437-64.456 64.437-35.531 0-64.438-28.907-64.438-64.437v-73.057h-40.93v73.057c0 1.883 0.052 3.754 0.15 5.613l-0.105-0.001c-0.371 30.348-25.37 55.038-55.725 55.038-30.072 0-54.658-23.94-55.704-53.761l40.976-193.712c2.175-5.546 15.424-35.525 47.345-35.525h595.207c32.276 0 46.786 30.057 49.535 36.529l40.002 192.673c-1.026 29.838-25.621 53.796-55.706 53.796z" fill="#43CF5B" p-id="20586"></path><path d="M948.418 941.35H73.535c-11.303 0-20.466-9.163-20.466-20.467s9.163-20.466 20.466-20.466h874.883c11.303 0 20.466 9.163 20.466 20.466s-9.163 20.467-20.466 20.467z" fill="#43CF5B" p-id="20587"></path><path d="M190.953 934.186c-11.303 0-20.466-9.162-20.466-20.466V550.13c0-11.304 9.163-20.467 20.466-20.467s20.466 9.163 20.466 20.466V913.72c0 11.304-9.163 20.466-20.466 20.466z m640.046 0c-11.303 0-20.466-9.162-20.466-20.466V550.13c0-11.304 9.163-20.467 20.466-20.467s20.466 9.163 20.466 20.466V913.72c0 11.304-9.162 20.466-20.466 20.466z" fill="#43CF5B" p-id="20588"></path></svg>